<svg width="360" height="270" viewBox="0 0 360 270" fill="none" xmlns="http://www.w3.org/2000/svg">
<rect width="360" height="270" fill="white"/>
<path d="M9.63388 158.06L8.25391 157.46C21.0839 128.22 43.9139 103.2 74.2539 85.1001C105.254 66.6101 141.814 56.8301 179.954 56.8301C217.884 56.8301 254.274 66.5101 285.184 84.8301C315.424 102.75 338.274 127.55 351.244 156.55L349.874 157.16C337.024 128.44 314.394 103.88 284.414 86.1601C253.754 67.9401 217.584 58.3301 179.964 58.3301C142.094 58.3301 105.804 68.0301 75.0339 86.3901C44.9439 104.33 22.3339 129.11 9.63388 158.06Z" fill="#C5F2F8"/>
<path d="M352.522 183.02C339.302 157.12 309.962 111.44 302.522 103.65C298.702 99.6499 297.572 96.9699 280.382 95.2399C247.692 91.9399 185.962 92.3699 179.992 92.4199C174.022 92.4699 112.252 91.9399 79.5821 95.2699C62.3821 96.9999 61.2521 99.6999 57.4421 103.68C49.9621 111.47 20.6321 157.15 7.44213 183.05C-5.74787 208.95 37.3121 207.79 69.0021 208.38C99.2721 208.93 173.442 208.91 180.002 208.91C186.562 208.91 260.722 208.91 291.002 208.38C322.652 207.76 365.742 208.93 352.522 183.02Z" fill="#E7E7EF"/>
<path d="M182.323 197.109C182.323 197.109 183.813 177.019 190.773 170.999C197.733 164.979 201.603 164.359 207.093 163.159C207.093 163.159 202.013 158.889 202.223 148.289C202.223 148.289 213.273 155.639 224.763 145.289C224.763 145.289 224.693 152.579 224.113 154.909C223.533 157.239 222.453 161.399 221.013 162.719C221.013 162.719 222.183 162.869 223.753 163.239C225.173 163.555 226.562 163.996 227.903 164.559L197.973 205.429C197.973 205.429 181.843 205.399 182.323 197.109Z" fill="white"/>
<path d="M278.385 192.121L297.735 168.731C297.735 168.731 289.255 163.831 281.595 163.381C281.595 163.381 281.595 172.641 273.595 172.641C266.135 172.641 265.595 163.381 265.595 163.381C265.595 163.381 252.895 164.851 242.825 173.111C232.755 181.371 227.965 203.021 227.965 203.021C227.965 203.021 228.065 206.861 238.275 207.021C241.985 207.081 249.515 207.081 260.135 207.021C262.135 207.021 256.135 190.781 254.395 181.701L264.855 192.601C265.742 193.518 266.812 194.239 267.996 194.717C269.18 195.194 270.451 195.418 271.727 195.372C273.002 195.327 274.254 195.014 275.401 194.454C276.548 193.894 277.565 193.099 278.385 192.121Z" fill="white"/>
<path d="M297.733 206.59C307.993 206.44 304.143 206.47 305.943 206.23C310.813 205.57 320.513 204.81 316.803 194.74C315.087 189.857 313.108 185.07 310.873 180.4L307.793 176.4C307.793 176.4 308.373 182.32 295.263 200.19C291.413 205.4 293.343 206.65 297.733 206.59Z" fill="white"/>
<path d="M80.1426 177.91C78.4026 175.76 73.2626 170.52 69.3226 164.6C66.7726 161.99 66.7726 161.99 66.1426 160.97C70.6868 159.497 75.3835 158.544 80.1426 158.13L80.8126 149.47C78.7193 146.447 77.0378 143.158 75.8126 139.69C71.8126 126.62 75.5826 117.07 75.5826 117.07C78.364 119.416 81.3154 121.552 84.4127 123.46C92.9927 128.91 107.033 126.62 107.033 126.62C107.033 126.62 106.033 142.79 100.643 149.47L101.453 157.18C101.453 157.18 119.303 161.84 127.283 165.62C135.263 169.4 151.203 188.21 131.773 196.06C120.893 200.46 89.6027 203.13 64.2927 204.62C62.7127 204.71 77.6327 191.54 92.5327 192.54C98.8327 192.96 89.7726 186.65 72.6426 190.73C62.4726 193.15 50.7226 205.34 49.8526 205.39C37.2826 205.98 28.4727 206.23 28.4727 206.23C31.6127 199.57 35.2826 181.18 44.8926 172.64C47.7144 170.053 50.8812 167.869 54.3026 166.15C55.1926 167.83 66.9626 181.71 68.9626 184.15L70.4426 186.15L77.0427 183.48L83.6926 181.88L80.1426 177.91Z" fill="white"/>
<path d="M169.582 188.6C172.038 188.102 174.352 187.06 176.352 185.55C180.502 182.32 188.102 166.45 187.972 166.15C187.842 165.85 184.272 153.5 167.122 148.86L162.732 147.92L162.322 141.83C164.515 137.366 165.716 132.481 165.842 127.51C165.842 127.51 156.842 131.17 144.572 128.51C144.572 128.51 144.082 138.08 148.502 142.74L148.082 148.15L141.082 150.1L171.582 191.27" fill="white"/>
<path d="M154.885 186.36L132.315 155.1C132.315 155.1 125.995 157.97 129.185 161.65C129.185 161.65 139.935 170.65 148.805 177.94" fill="white"/>
<path d="M78.0039 106.011C78.0039 106.011 87.1939 101.881 95.6639 110.701C104.134 119.521 109.344 122.791 111.784 116.341C114.224 109.891 104.134 99.7106 94.2739 99.6406C88.2499 99.6809 82.454 101.95 78.0039 106.011Z" fill="white"/>
<path d="M137.352 118.201C137.352 118.201 139.892 121.951 148.012 120.331C156.132 118.711 160.012 120.791 164.502 120.671C168.992 120.551 173.832 118.771 174.652 120.451C174.652 120.451 169.592 107.451 156.002 107.681C142.412 107.911 137.352 118.201 137.352 118.201Z" fill="white"/>
<path d="M225.492 133.269C225.492 133.269 219.012 132.379 215.492 136.209C211.972 140.039 197.062 145.359 198.242 137.109C199.422 128.859 206.242 125.849 211.852 125.419C215.402 125.099 221.132 126.689 225.492 133.269Z" fill="white"/>
<path d="M244.164 142.669C244.164 142.669 251.464 124.849 262.814 123.219C274.164 121.589 287.754 142.669 300.584 134.749C300.584 134.749 295.174 111.269 276.124 109.129C257.074 106.989 245.724 131.959 244.164 142.669Z" fill="white"/>
<path d="M184.002 125.48C206.582 117.27 215.932 102.12 216.582 100.95L216.682 100.78C219.162 97.0101 224.732 88.2801 224.732 77.7801V41.7801C224.736 40.6717 224.326 39.602 223.582 38.7801C222.845 37.9507 221.833 37.4147 220.732 37.2701C207.02 35.5315 193.931 30.5018 182.582 22.6101C181.818 22.0687 180.909 21.7691 179.972 21.7501C179.048 21.7455 178.145 22.0324 177.392 22.5701C166.019 30.4914 152.894 35.5356 139.142 37.2701C138.05 37.4192 137.043 37.9421 136.292 38.7501C135.559 39.5774 135.154 40.6444 135.152 41.7501V77.8001C135.152 88.2801 140.702 97.0101 143.102 100.8L143.222 100.97C143.827 101.987 144.495 102.966 145.222 103.9" fill="white"/>
<path d="M184.254 126.19L183.744 124.78C206.324 116.53 215.584 101.27 215.984 100.57L216.064 100.42C218.264 97.07 224.064 88.32 224.064 77.79V41.79C224.049 40.871 223.693 39.9906 223.064 39.32C222.435 38.618 221.57 38.17 220.634 38.06C206.788 36.3014 193.571 31.2278 182.104 23.27C181.462 22.8167 180.7 22.5628 179.914 22.54C179.154 22.543 178.414 22.7805 177.794 23.22C166.328 31.1871 153.106 36.2646 139.254 38.02C138.33 38.143 137.477 38.5851 136.844 39.27C136.239 39.9586 135.905 40.8435 135.904 41.76V77.79C135.904 88.07 141.394 96.69 143.744 100.38L143.854 100.55C144.462 101.546 145.13 102.504 145.854 103.42L144.664 104.34C143.913 103.381 143.219 102.38 142.584 101.34L142.484 101.19C140.074 97.4 134.414 88.52 134.414 77.8V41.71C134.428 40.4422 134.896 39.2214 135.734 38.27C136.606 37.3326 137.776 36.7251 139.044 36.55C152.655 34.8219 165.647 29.8302 176.914 22C177.78 21.3509 178.832 21 179.914 21C180.991 21.0271 182.036 21.3753 182.914 22C194.181 29.8213 207.168 34.8091 220.774 36.54C222.085 36.6769 223.299 37.293 224.184 38.27C225.046 39.2244 225.523 40.4642 225.524 41.75V77.75C225.524 88.75 219.584 97.75 217.344 101.15L217.284 101.27C216.874 102 207.334 117.76 184.254 126.19Z" fill="#36354A"/>
<path d="M178.135 37.9909C170.171 43.5324 160.981 47.0598 151.355 48.2709C150.593 48.3661 149.888 48.719 149.355 49.2709C148.841 49.8502 148.557 50.5968 148.555 51.3709V76.6709C148.555 84.0209 152.445 90.1409 154.135 92.7809L154.205 92.9109C154.705 93.7409 161.795 105.181 178.985 110.761C179.611 110.951 180.279 110.951 180.905 110.761C198.085 105.181 205.185 93.7609 205.685 92.9109L205.745 92.7809C207.495 90.1409 211.395 84.0209 211.395 76.6709V51.4509C211.391 50.6801 211.107 49.9371 210.595 49.3609C210.078 48.7675 209.364 48.3805 208.585 48.2709C198.954 47.0584 189.761 43.5274 181.795 37.9809C181.26 37.5994 180.622 37.3901 179.965 37.3809C179.306 37.3885 178.666 37.6018 178.135 37.9909Z" fill="#C5F2F8"/>
<path d="M175.31 85.0445L166 75.7448L169.336 72.3993L175.31 78.3734L190.683 63L194.019 66.3355L175.31 85.0445Z" fill="white"/>
<path d="M80.1525 177.91L66.3925 160.99L54.3125 166.14L68.9625 184.16L80.1525 177.91Z" fill="#C5F2F8"/>
<path d="M155.621 187.379L131.781 154.349L141.631 149.789L171.551 191.249" fill="#C5F2F8"/>
<path d="M267.375 206.23L297.875 168.73L307.935 176.36L283.645 206.23" fill="#C5F2F8"/>
<path d="M197.973 205.399L227.903 163.939L236.693 169.569L213.913 201.529" fill="#C5F2F8"/>
<path d="M227.279 163.489L197.363 204.953L198.58 205.831L228.496 164.366L227.279 163.489Z" fill="#36354A"/>
<path d="M236.067 169.116L213.285 201.078L214.507 201.949L237.288 169.987L236.067 169.116Z" fill="#36354A"/>
<path d="M214.171 166.619H214.051C212.577 166.643 211.114 166.359 209.756 165.785C208.397 165.212 207.173 164.362 206.161 163.289C201.031 157.849 201.461 147.759 201.481 147.289L202.981 147.359C202.981 147.459 202.561 157.239 207.251 162.209C208.125 163.136 209.184 163.869 210.359 164.361C211.533 164.854 212.798 165.095 214.071 165.069H214.171C221.031 165.069 222.661 157.829 223.361 154.729C223.451 154.329 223.531 153.999 223.601 153.729L225.041 154.139C224.981 154.349 224.911 154.649 224.831 155.019C224.121 158.269 222.231 166.619 214.171 166.619Z" fill="#36354A"/>
<path d="M223.372 156.16L223.572 153.96C223.953 149.925 224.083 145.87 223.962 141.82L225.452 141.71C225.599 145.06 225.532 148.417 225.252 151.76C226.892 149.7 229.362 146.19 229.892 143.2C230.482 139.84 229.792 136.28 228.242 134.75C227.912 134.403 227.499 134.148 227.041 134.01C226.584 133.871 226.098 133.854 225.632 133.96L225.092 134.06L224.832 133.57C224.592 133.14 218.952 122.91 206.832 127.11C202.312 128.67 199.542 133.79 198.892 137.89C198.322 141.45 199.162 144.39 201.192 145.89C205.952 149.5 212.912 148.19 220.312 142.31C221.882 141.035 223.16 139.44 224.062 137.63L225.392 138.32C224.392 140.319 222.977 142.081 221.242 143.49C213.242 149.83 205.632 151.14 200.292 147.09C197.802 145.2 196.752 141.74 197.412 137.61C198.132 133.09 201.232 127.41 206.342 125.61C218.172 121.52 224.532 130.21 225.882 132.33C226.511 132.276 227.144 132.363 227.736 132.585C228.327 132.806 228.862 133.156 229.302 133.61C231.532 135.82 231.942 140.11 231.362 143.38C230.482 148.38 225.102 154.21 224.872 154.46L223.372 156.16Z" fill="#36354A"/>
<path d="M91.0116 154.419C88.9952 154.435 86.9995 154.012 85.1637 153.177C83.3278 152.343 81.6958 151.119 80.3816 149.589C73.6316 142.169 72.5816 128.749 72.8916 125.589C72.8916 125.439 74.3616 111.109 80.2016 111.109V112.609C77.1016 112.609 74.8916 120.429 74.3816 125.729C74.1016 128.599 75.1716 141.599 81.4916 148.549C82.6676 149.921 84.1286 151.02 85.7727 151.77C87.4169 152.519 89.2047 152.901 91.0116 152.889C92.6457 152.925 94.2689 152.614 95.7738 151.977C97.2787 151.339 98.6311 150.389 99.7416 149.189C107.162 141.349 106.252 123.699 106.242 123.529L107.742 123.439C107.742 124.189 108.742 141.899 100.842 150.219C99.5945 151.576 98.0731 152.652 96.3783 153.376C94.6836 154.101 92.8542 154.456 91.0116 154.419Z" fill="#36354A"/>
<path d="M73.5834 133.529C71.212 129.905 69.5399 125.869 68.6534 121.629C67.8634 117.149 69.2134 112.119 71.9434 109.409C72.6297 108.664 73.492 108.104 74.4512 107.779C75.4104 107.454 76.4358 107.375 77.4334 107.549L76.4334 106.549C84.1634 98.8892 91.4334 97.1192 101.433 100.439C107.433 102.439 112.943 109.839 113.203 116.279C113.353 119.809 111.823 122.439 108.903 123.679C102.823 126.259 92.1334 125.869 85.4334 120.749C81.9534 118.079 80.3234 114.589 79.1234 112.029C78.4334 110.559 77.7834 109.169 77.2134 109.029C76.4533 108.895 75.6714 108.957 74.9418 109.209C74.2121 109.461 73.5588 109.894 73.0435 110.469C70.6835 112.819 69.4735 117.399 70.1735 121.369C71.0371 125.396 72.6263 129.232 74.8635 132.689L73.5834 133.529ZM77.4735 107.529C78.7835 107.789 79.4735 109.269 80.4735 111.329C81.6035 113.739 83.1535 117.039 86.3435 119.489C92.6035 124.279 102.613 124.649 108.343 122.229C111.343 120.969 111.823 118.299 111.743 116.229C111.523 111.009 106.883 103.709 100.983 101.759C91.5135 98.7092 84.7234 100.369 77.4634 107.559L77.4735 107.529Z" fill="#36354A"/>
<path d="M107.171 134.67L106.031 133.67C106.031 133.62 109.871 129.02 111.031 119.75L112.521 119.94C111.291 129.72 107.341 134.47 107.171 134.67Z" fill="#36354A"/>
<path d="M90.7925 170.34C89.2223 170.341 87.6688 170.017 86.2298 169.388C84.7908 168.76 83.4973 167.84 82.4305 166.688C81.3637 165.536 80.5467 164.176 80.0308 162.693C79.5149 161.209 79.3112 159.636 79.4325 158.07L80.0925 149.42L81.5925 149.53L80.9225 158.18C80.8178 159.54 80.9953 160.907 81.4438 162.195C81.8923 163.484 82.6022 164.665 83.5289 165.666C84.4557 166.667 85.5793 167.466 86.8292 168.012C88.0791 168.558 89.4285 168.84 90.7925 168.84C92.1671 168.843 93.5271 168.559 94.7858 168.007C96.0445 167.454 97.1743 166.646 98.103 165.632C99.0317 164.619 99.739 163.423 100.18 162.121C100.62 160.819 100.785 159.439 100.663 158.07L99.9025 149.54L101.393 149.41L102.153 157.94C102.291 159.516 102.101 161.103 101.593 162.601C101.085 164.099 100.271 165.475 99.2023 166.641C98.1338 167.807 96.8343 168.738 95.3865 169.375C93.9387 170.012 92.3742 170.341 90.7925 170.34Z" fill="#36354A"/>
<path d="M28.9339 206.399L28.0039 206.049C28.0639 205.889 34.2239 189.369 37.9439 181.489C47.8739 160.489 79.7739 156.719 80.0939 156.689L80.2039 157.689C79.8839 157.689 48.5439 161.419 38.8539 181.929C35.1439 189.759 29.0039 206.269 28.9339 206.399Z" fill="#36354A"/>
<path d="M152.423 206.489C152.363 206.329 146.213 189.859 142.513 182.029C132.883 161.639 101.683 157.959 101.363 157.929L101.533 156.439C101.853 156.439 133.883 160.239 143.873 181.439C147.603 189.319 153.763 205.849 153.873 206.019L152.423 206.489Z" fill="#36354A"/>
<path d="M273.582 173.39C272.372 173.39 271.175 173.139 270.066 172.654C268.957 172.169 267.96 171.461 267.137 170.573C266.315 169.685 265.685 168.636 265.287 167.493C264.888 166.35 264.73 165.137 264.822 163.93L265.332 157.41L266.822 157.52L266.322 164.05C266.245 165.051 266.376 166.056 266.706 167.004C267.035 167.951 267.558 168.821 268.239 169.557C268.921 170.293 269.748 170.88 270.667 171.282C271.587 171.683 272.579 171.891 273.582 171.89C274.594 171.89 275.594 171.68 276.519 171.272C277.444 170.864 278.275 170.269 278.958 169.523C279.64 168.777 280.16 167.898 280.485 166.94C280.809 165.982 280.931 164.968 280.842 163.96L280.262 157.53L281.762 157.4L282.332 163.83C282.441 165.045 282.295 166.268 281.904 167.423C281.514 168.578 280.887 169.639 280.064 170.538C279.241 171.438 278.239 172.156 277.123 172.647C276.008 173.138 274.802 173.391 273.582 173.39Z" fill="#36354A"/>
<path d="M227.274 206.201L225.844 205.741C225.844 205.601 230.544 191.241 233.354 184.391C240.914 165.951 265.194 162.661 265.434 162.631L265.624 164.121C265.394 164.121 241.974 167.341 234.744 184.961C231.954 191.761 227.314 206.061 227.274 206.201Z" fill="#36354A"/>
<path d="M319.864 206.201C319.864 206.061 315.184 191.761 312.394 184.961C305.164 167.341 281.734 164.151 281.504 164.121L281.694 162.631C281.934 162.631 306.214 165.951 313.774 184.391C316.584 191.241 321.244 205.601 321.284 205.741L319.864 206.201Z" fill="#36354A"/>
<path d="M66.9841 160.554L65.8203 161.5L79.5813 178.421L80.745 177.474L66.9841 160.554Z" fill="#36354A"/>
<path d="M54.8784 165.624L53.7148 166.57L68.3686 184.582L69.5321 183.636L54.8784 165.624Z" fill="#36354A"/>
<path d="M297.159 168.278L266.672 205.779L267.836 206.726L298.323 169.224L297.159 168.278Z" fill="#36354A"/>
<path d="M307.228 175.906L282.941 205.779L284.105 206.726L308.392 176.852L307.228 175.906Z" fill="#36354A"/>
<path d="M155.425 157.541C154.3 157.542 153.187 157.31 152.157 156.859C151.126 156.409 150.2 155.75 149.436 154.925C148.673 154.099 148.088 153.124 147.72 152.062C147.351 150.999 147.206 149.872 147.295 148.751L147.755 142.751L149.255 142.861L148.785 148.861C148.714 149.776 148.834 150.695 149.136 151.562C149.438 152.428 149.915 153.223 150.539 153.896C151.162 154.569 151.918 155.107 152.759 155.474C153.599 155.841 154.507 156.031 155.425 156.031C156.349 156.03 157.263 155.837 158.109 155.465C158.955 155.092 159.714 154.548 160.339 153.866C160.963 153.184 161.439 152.38 161.736 151.505C162.033 150.629 162.145 149.702 162.065 148.781L161.535 142.841L163.025 142.711L163.555 148.651C163.655 149.779 163.519 150.915 163.155 151.988C162.792 153.061 162.21 154.046 161.445 154.881C160.68 155.716 159.75 156.383 158.714 156.84C157.677 157.296 156.557 157.531 155.425 157.531V157.541Z" fill="#36354A"/>
<path d="M142.248 149.382L141.031 150.26L170.955 191.719L172.171 190.841L142.248 149.382Z" fill="#36354A"/>
<path d="M132.396 153.937L131.18 154.814L155.017 187.841L156.233 186.963L132.396 153.937Z" fill="#36354A"/>
<path d="M274.471 161.339C273.956 161.338 273.441 161.298 272.931 161.219C266.771 160.289 262.471 155.369 260.491 146.979C259.587 142.952 259.208 138.824 259.361 134.699L260.851 134.789C260.851 135.019 259.731 157.709 273.151 159.729C273.582 159.796 274.016 159.83 274.451 159.829C284.141 159.829 286.871 142.709 286.901 142.529L288.391 142.759C287.809 146.133 286.801 149.419 285.391 152.539C282.651 158.319 278.911 161.339 274.471 161.339Z" fill="#36354A"/>
<path d="M288.584 143.42C279.954 143.42 274.524 137.3 270.674 132.96C269.984 132.19 269.344 131.47 268.734 130.83C268.402 130.402 267.966 130.066 267.467 129.854C266.968 129.642 266.423 129.562 265.884 129.62C263.544 130.02 261.414 133.68 260.784 135.06L259.414 134.44C259.524 134.21 262.034 128.76 265.634 128.14C266.414 128.033 267.208 128.129 267.94 128.418C268.672 128.707 269.318 129.179 269.814 129.79C270.434 130.44 271.094 131.18 271.814 131.97C276.614 137.37 283.174 144.77 295.044 140.79L295.514 142.22C293.285 142.995 290.944 143.4 288.584 143.42Z" fill="#36354A"/>
<path d="M250.655 167.691C250.545 167.561 239.075 154.181 244.655 137.061C249.585 122.061 259.005 111.521 269.855 108.881C275.074 107.661 280.563 108.484 285.195 111.181C291.195 114.561 295.875 120.541 299.255 128.981C306.165 146.281 305.555 155.891 296.805 167.081L295.625 166.151C302.865 156.891 305.365 148.311 297.855 129.541C290.855 112.111 279.005 108.191 270.205 110.331C258.035 113.331 249.765 126.331 246.085 137.521C240.725 153.821 251.625 166.581 251.735 166.701L250.655 167.691Z" fill="#36354A"/>
<path d="M127.914 159.951L126.664 159.121C132.434 150.531 146.664 147.671 147.274 147.551L147.564 149.031C147.424 149.051 133.334 151.881 127.914 159.951Z" fill="#36354A"/>
<path d="M188.582 170.109C186.862 164.499 184.692 160.429 182.142 158.009C177.022 153.067 170.456 149.893 163.402 148.949L163.492 147.449C170.909 148.377 177.819 151.703 183.172 156.919C185.912 159.519 188.172 163.809 190.012 169.669L188.582 170.109Z" fill="#36354A"/>
<path d="M238.584 172.829C233.004 164.049 221.124 163.449 221.004 163.439L221.064 161.939C221.584 161.939 233.854 162.589 239.854 172.029L238.584 172.829Z" fill="#36354A"/>
<path d="M183.074 199.061L181.574 198.991C181.574 198.121 182.634 177.661 190.254 170.451C194.672 166.147 200.374 163.404 206.494 162.641L206.594 164.141C200.833 164.913 195.469 167.506 191.284 171.541C184.104 178.341 183.084 198.851 183.074 199.061Z" fill="#36354A"/>
<path d="M154.743 146.36C153.494 146.395 152.252 146.162 151.1 145.678C149.947 145.193 148.912 144.468 148.063 143.55C142.863 138.01 143.873 126.23 143.923 125.73L145.413 125.86C145.413 125.98 144.413 137.48 149.153 142.53C149.899 143.325 150.811 143.946 151.824 144.349C152.836 144.752 153.925 144.926 155.013 144.86C156.169 144.858 157.31 144.613 158.365 144.141C159.419 143.669 160.362 142.981 161.133 142.12C165.793 136.95 165.043 126.24 165.043 126.12L166.533 126C166.533 126.47 167.343 137.45 162.253 143.1C161.348 144.116 160.239 144.929 158.998 145.487C157.758 146.045 156.414 146.336 155.053 146.34L154.743 146.36Z" fill="#36354A"/>
<path d="M157.975 127.38C152.296 127.328 146.634 126.769 141.055 125.71L141.345 124.24C141.525 124.24 159.615 127.86 170.215 124.24L170.695 125.66C166.572 126.903 162.279 127.483 157.975 127.38Z" fill="#36354A"/>
<path d="M147.042 145.269H130.042V144.529C129.802 115.669 145.482 107.349 154.772 106.979C157.471 106.804 160.177 107.183 162.724 108.092C165.271 109.002 167.605 110.424 169.582 112.269C180.362 122.269 181.192 142.619 181.222 143.479V144.249H164.982V142.749H179.642C179.372 138.919 177.692 121.879 168.512 113.369C166.694 111.662 164.546 110.344 162.201 109.496C159.855 108.648 157.361 108.289 154.872 108.439C146.192 108.779 131.622 116.619 131.572 143.729H147.042V145.269Z" fill="#36354A"/>
<path d="M133.672 208.599C129.911 200.693 124.004 194.002 116.626 189.288C109.247 184.575 100.693 182.029 91.9375 181.94C83.1823 181.852 74.5783 184.224 67.1058 188.787C59.6332 193.35 53.5925 199.92 49.672 207.749L48.332 207.069C52.3221 199.053 58.4749 192.313 66.0948 187.611C73.7147 182.909 82.498 180.431 91.452 180.459C100.563 180.487 109.482 183.081 117.187 187.945C124.891 192.809 131.069 199.745 135.012 207.959L133.672 208.599Z" fill="#36354A"/>
<path d="M120.914 209.27C117.763 204.404 113.455 200.395 108.376 197.602C103.296 194.809 97.6036 193.318 91.807 193.264C86.0104 193.209 80.2906 194.593 75.1595 197.29C70.0284 199.987 65.6459 203.914 62.4041 208.72L61.1641 207.88C64.544 202.869 69.1134 198.775 74.4632 195.963C79.8131 193.151 85.7765 191.71 91.82 191.767C97.8635 191.825 103.799 193.38 109.094 196.293C114.389 199.206 118.88 203.386 122.164 208.46L120.914 209.27Z" fill="#36354A"/>
<path d="M259.342 207.161C253.032 172.011 246.412 171.271 246.342 171.271L246.262 169.771C247.062 169.691 254.212 170.151 260.802 206.901L259.342 207.161Z" fill="#36354A"/>
<path d="M213.834 171.61C208.704 171.61 204.684 169.03 204.684 165.73C204.707 164.636 205.134 163.589 205.884 162.79L207.004 163.79C206.497 164.312 206.204 165.004 206.184 165.73C206.184 168.11 209.684 170.11 213.834 170.11C217.984 170.11 221.484 168.11 221.484 165.73C221.462 164.975 221.147 164.257 220.604 163.73L221.704 162.73C222.497 163.531 222.955 164.604 222.984 165.73C222.984 169.03 218.964 171.61 213.834 171.61Z" fill="#36354A"/>
</svg>
